<svg width="48" height="49" viewBox="0 0 48 49" fill="none" xmlns="http://www.w3.org/2000/svg">
<rect width="48" height="48.6486" rx="24" fill="#0C0A09"/>
<path fill-rule="evenodd" clip-rule="evenodd" d="M31.2003 19.4595C31.2003 23.4897 27.9767 26.7568 24.0003 26.7568C20.0238 26.7568 16.8003 23.4897 16.8003 19.4595C16.8003 15.4293 20.0238 12.1622 24.0003 12.1622C27.9767 12.1622 31.2003 15.4293 31.2003 19.4595ZM28.8003 19.4595C28.8003 22.1463 26.6513 24.3243 24.0003 24.3243C21.3493 24.3243 19.2003 22.1463 19.2003 19.4595C19.2003 16.7727 21.3493 14.5946 24.0003 14.5946C26.6513 14.5946 28.8003 16.7727 28.8003 19.4595Z" fill="#FAFAF9"/>
<path d="M24.0003 30.4054C16.231 30.4054 9.61142 35.0616 7.08984 41.5849C7.70412 42.2031 8.35121 42.7879 9.02824 43.3363C10.9059 37.3472 16.7964 32.8378 24.0003 32.8378C31.2042 32.8378 37.0947 37.3472 38.9724 43.3363C39.6494 42.7879 40.2965 42.2032 40.9108 41.5849C38.3892 35.0616 31.7696 30.4054 24.0003 30.4054Z" fill="#FAFAF9"/>
</svg>
