<svg width="1945" height="730" viewBox="0 0 1945 730" fill="none" xmlns="http://www.w3.org/2000/svg">
<path d="M627.996 720.539V85.4606" stroke="black" stroke-width="20"/>
<path d="M761.996 721.079V85.9999" stroke="black" stroke-width="20"/>
<path d="M1250 717.861V99.8611" stroke="black" stroke-width="20"/>
<line y1="-10" x2="390.362" y2="-10" transform="matrix(-0.0106456 -0.999943 0.999949 -0.0101387 1460 466.573)" stroke="black" stroke-width="20"/>
<line x1="1449" y1="707.861" x2="1449" y2="508.861" stroke="black" stroke-width="20"/>
<line x1="1439" y1="702.861" x2="1659" y2="702.861" stroke="black" stroke-width="20"/>
<line x1="1439" y1="507.861" x2="1485" y2="507.861" stroke="black" stroke-width="20"/>
<path d="M1166.62 371.164C1180.41 579.04 1103.21 752.269 892.717 698.526" stroke="black" stroke-width="20"/>
<path d="M1161.45 324.444C1109.64 100.12 963.707 7.56208 833.158 192.759" stroke="black" stroke-width="20"/>
<path d="M629.555 90.9469L697.555 241.947" stroke="black" stroke-width="20" stroke-linecap="square"/>
<path d="M695.555 567.947L758.996 716" stroke="black" stroke-width="20" stroke-linecap="square"/>
<line x1="1096" y1="89.8611" x2="1335" y2="89.8611" stroke="black" stroke-width="20"/>
<line x1="1365" y1="89.8611" x2="1409" y2="89.8611" stroke="black" stroke-width="20"/>
<line x1="1658" y1="86.1611" x2="1455" y2="86.1611" stroke="black" stroke-width="20"/>
<path d="M1891.13 104.654C1696.03 21.6999 1644.75 218.818 1769.5 330.152C1843.55 396.243 1954.16 461.831 1931.36 608.424M1912.93 655.737C1877.4 711.047 1835.91 702.042 1766.29 702.596" stroke="black" stroke-width="20"/>
<path d="M391.665 5V0H386.665V5H391.665ZM498.138 5H503.138V0H498.138V5ZM498.138 117.229V122.229H503.138V117.229H498.138ZM391.665 117.229H386.665V122.229H391.665V117.229ZM610.635 528.646C611.958 526.222 611.066 523.185 608.642 521.862C606.218 520.538 603.181 521.43 601.858 523.854L610.635 528.646ZM290.687 524.259C289.396 521.818 286.37 520.887 283.929 522.178C281.488 523.47 280.557 526.495 281.848 528.936L290.687 524.259ZM352.438 646.792C349.676 646.792 347.438 649.031 347.438 651.792C347.438 654.554 349.676 656.792 352.438 656.792V646.792ZM354.996 681.059V676.059H349.996V681.059H354.996ZM536.496 681.059H541.496V676.059H536.496V681.059ZM536.496 716.5V721.5H541.496V716.5H536.496ZM354.996 716.5H349.996V721.5H354.996V716.5ZM432.996 230L437.993 229.819L437.325 211.4L428.593 227.631L432.996 230ZM427.213 240.75L422.81 238.381L422.76 238.473L422.715 238.567L427.213 240.75ZM287.496 524L283.01 521.792L281.429 525.004L283.961 527.536L287.496 524ZM396.996 494.799L391.998 494.949L391.999 494.973L392 494.997L396.996 494.799ZM495.496 494.799L500.494 494.947V494.947L495.496 494.799ZM440.5 437L441.347 441.928L445.655 441.187L445.497 436.819L440.5 437ZM423.496 247.658L419.093 245.29L419.05 245.369L419.01 245.451L423.496 247.658ZM288.996 525.5L285.461 529.036L290.427 534.002L293.494 527.683L288.996 525.5ZM449.496 229.5L453.694 226.784L445.294 232.21L449.496 229.5ZM456.912 241L461.306 238.615L461.216 238.449L461.114 238.29L456.912 241ZM605.996 525.5L610.74 523.919L610.624 523.572L610.459 523.246L605.996 525.5ZM460.496 246.5L464.9 244.132L464.804 243.954L464.694 243.784L460.496 246.5ZM606.496 527L602.035 529.257L611.24 525.419L606.496 527ZM437.5 436.5L432.501 436.609L432.592 440.751L436.678 441.432L437.5 436.5ZM458.505 437L457.683 441.932L463.753 442.944L463.5 436.795L458.505 437ZM449.996 230L454.293 227.443L444.487 210.965L444.998 230.133L449.996 230ZM455.505 436.5L450.506 436.633L450.616 440.754L454.683 441.432L455.505 436.5ZM528.831 373.5L533.292 371.243L533.259 371.178L533.225 371.115L528.831 373.5ZM535.788 386.5L540.251 384.246L540.222 384.188L540.192 384.132L535.788 386.5ZM877 59.6377C877 84.041 858.296 103.369 835.769 103.369V113.369C864.308 113.369 887 89.0611 887 59.6377H877ZM835.769 103.369C813.242 103.369 794.537 84.0409 794.537 59.6377H784.537C784.537 89.0612 807.23 113.369 835.769 113.369V103.369ZM794.537 59.6377C794.537 35.2345 813.242 15.9068 835.769 15.9068V5.90678C807.23 5.90678 784.537 30.2142 784.537 59.6377H794.537ZM835.769 15.9068C858.296 15.9068 877 35.2344 877 59.6377H887C887 30.2143 864.308 5.90678 835.769 5.90678V15.9068ZM92.4633 59.6377C92.4633 84.0409 73.7584 103.369 51.2316 103.369V113.369C79.7708 113.369 102.463 89.0612 102.463 59.6377H92.4633ZM51.2316 103.369C28.7048 103.369 10 84.041 10 59.6377H0C0 89.0612 22.6924 113.369 51.2316 113.369V103.369ZM10 59.6377C10 35.2345 28.7048 15.9068 51.2316 15.9068V5.90678C22.6924 5.90678 0 30.2143 0 59.6377H10ZM51.2316 15.9068C73.7584 15.9068 92.4633 35.2345 92.4633 59.6377H102.463C102.463 30.2142 79.7708 5.90678 51.2316 5.90678V15.9068ZM391.665 10H498.138V0H391.665V10ZM493.138 5V117.229H503.138V5H493.138ZM498.138 112.229H391.665V122.229H498.138V112.229ZM396.665 117.229V5H386.665V117.229H396.665ZM601.858 523.854L532.108 651.604L540.885 656.396L610.635 528.646L601.858 523.854ZM356.198 648.067L290.687 524.259L281.848 528.936L347.359 652.744L356.198 648.067ZM352.438 656.792H540.727V646.792H352.438V656.792ZM354.996 686.059H536.496V676.059H354.996V686.059ZM531.496 681.059V716.5H541.496V681.059H531.496ZM536.496 711.5H354.996V721.5H536.496V711.5ZM359.996 716.5V681.059H349.996V716.5H359.996ZM94.6614 58.017H391.665V48.017H94.6614V58.017ZM498.138 58.017H795.141V48.017H498.138V58.017ZM428.593 227.631L422.81 238.381L431.616 243.119L437.399 232.369L428.593 227.631ZM396.996 494.799C392 494.997 392 495 392 495.002C392 495.003 392 495.006 392 495.009C392.001 495.013 392.001 495.018 392.001 495.025C392.002 495.037 392.002 495.052 392.003 495.071C392.005 495.108 392.007 495.157 392.011 495.218C392.017 495.34 392.028 495.509 392.043 495.722C392.073 496.148 392.123 496.752 392.203 497.507C392.364 499.017 392.648 501.143 393.145 503.682C394.134 508.736 395.989 515.546 399.478 522.414C402.972 529.292 408.168 536.351 415.881 541.689C423.641 547.06 433.68 550.5 446.5 550.5V540.5C435.571 540.5 427.547 537.602 421.572 533.467C415.55 529.299 411.339 523.683 408.394 517.885C405.444 512.078 403.83 506.213 402.958 501.761C402.525 499.547 402.281 497.712 402.147 496.449C402.08 495.818 402.04 495.332 402.018 495.016C402.007 494.858 402 494.742 401.996 494.672C401.994 494.637 401.993 494.613 401.992 494.602C401.992 494.596 401.992 494.593 401.992 494.593C401.992 494.593 401.992 494.594 401.992 494.595C401.992 494.596 401.992 494.598 401.992 494.598C401.992 494.6 401.992 494.602 396.996 494.799ZM446.5 550.5C459.321 550.5 469.334 547.06 477.054 541.68C484.726 536.333 489.858 529.263 493.286 522.378C496.709 515.504 498.497 508.69 499.436 503.634C499.908 501.095 500.17 498.968 500.316 497.458C500.389 496.702 500.433 496.098 500.458 495.672C500.471 495.459 500.48 495.29 500.485 495.168C500.488 495.107 500.49 495.058 500.491 495.021C500.492 495.002 500.493 494.987 500.493 494.975C500.493 494.968 500.493 494.963 500.494 494.958C500.494 494.956 500.494 494.953 500.494 494.952C500.494 494.949 500.494 494.947 495.496 494.799C490.498 494.652 490.498 494.65 490.498 494.648C490.498 494.648 490.498 494.646 490.498 494.645C490.499 494.644 490.499 494.643 490.499 494.643C490.499 494.643 490.498 494.646 490.498 494.652C490.498 494.663 490.497 494.687 490.495 494.722C490.492 494.792 490.486 494.908 490.477 495.066C490.458 495.382 490.423 495.868 490.362 496.498C490.24 497.761 490.015 499.595 489.604 501.809C488.778 506.259 487.223 512.12 484.335 517.921C481.451 523.712 477.303 529.317 471.336 533.476C465.416 537.602 457.43 540.5 446.5 540.5V550.5ZM451.032 439.906C471.343 443.896 481.106 457.224 485.946 469.988C488.384 476.418 489.53 482.635 490.06 487.268C490.324 489.575 490.432 491.464 490.475 492.759C490.497 493.405 490.502 493.902 490.502 494.225C490.502 494.387 490.501 494.505 490.5 494.577C490.499 494.613 490.499 494.638 490.498 494.651C490.498 494.657 490.498 494.66 490.498 494.661C490.498 494.661 490.498 494.66 490.498 494.659C490.498 494.658 490.498 494.656 490.498 494.656C490.498 494.654 490.498 494.652 495.496 494.799C500.494 494.947 500.494 494.944 500.494 494.942C500.494 494.941 500.494 494.938 500.494 494.936C500.494 494.931 500.495 494.926 500.495 494.92C500.495 494.908 500.495 494.893 500.496 494.874C500.497 494.838 500.498 494.789 500.498 494.729C500.5 494.608 500.502 494.439 500.502 494.225C500.502 493.798 500.495 493.191 500.47 492.427C500.419 490.9 500.293 488.739 499.995 486.131C499.4 480.932 498.108 473.857 495.296 466.442C489.636 451.517 477.649 434.944 452.96 430.094L451.032 439.906ZM396.996 494.799C401.994 494.65 401.994 494.652 401.994 494.654C401.994 494.654 401.994 494.656 401.994 494.657C401.994 494.658 401.994 494.659 401.994 494.659C401.994 494.659 401.994 494.656 401.994 494.65C401.994 494.638 401.993 494.614 401.993 494.579C401.992 494.509 401.99 494.394 401.99 494.236C401.99 493.92 401.995 493.435 402.017 492.803C402.06 491.537 402.168 489.69 402.432 487.437C402.961 482.912 404.103 476.852 406.532 470.615C411.343 458.264 421.049 445.417 441.347 441.928L439.653 432.072C414.952 436.319 402.906 452.372 397.214 466.986C394.392 474.232 393.096 481.172 392.499 486.276C392.2 488.837 392.074 490.961 392.023 492.464C391.997 493.215 391.99 493.814 391.99 494.235C391.99 494.446 391.992 494.612 391.994 494.732C391.995 494.792 391.996 494.841 391.996 494.877C391.997 494.895 391.997 494.91 391.998 494.922C391.998 494.928 391.998 494.933 391.998 494.938C391.998 494.94 391.998 494.943 391.998 494.944C391.998 494.946 391.998 494.949 396.996 494.799ZM291.982 526.208L427.982 249.866L419.01 245.451L283.01 521.792L291.982 526.208ZM427.899 250.027L437.399 232.369L428.593 227.631L419.093 245.29L427.899 250.027ZM422.715 238.567L284.498 523.317L293.494 527.683L431.711 242.933L422.715 238.567ZM292.532 521.964L291.032 520.464L283.961 527.536L285.461 529.036L292.532 521.964ZM445.294 232.21L452.71 243.71L461.114 238.29L453.698 226.79L445.294 232.21ZM464.694 243.784L453.694 226.784L445.298 232.216L456.298 249.216L464.694 243.784ZM611.24 525.419L610.74 523.919L601.253 527.081L601.753 528.581L611.24 525.419ZM426.204 254.275L437.448 232.275L428.544 227.725L417.3 249.725L426.204 254.275ZM442.499 436.391L437.995 229.891L427.997 230.109L432.501 436.609L442.499 436.391ZM427.999 230.181L435.504 437.181L445.497 436.819L437.993 229.819L427.999 230.181ZM441.322 432.068L438.322 431.568L436.678 441.432L439.678 441.932L441.322 432.068ZM471.293 256.009L454.293 227.443L445.699 232.557L462.699 261.123L471.293 256.009ZM460.503 436.367L454.994 229.867L444.998 230.133L450.506 436.633L460.503 436.367ZM445 230.205L453.509 437.205L463.5 436.795L454.992 229.795L445 230.205ZM459.327 432.068L456.327 431.568L454.683 441.432L457.683 441.932L459.327 432.068ZM452.517 243.385L524.436 375.885L533.225 371.115L461.306 238.615L452.517 243.385ZM524.369 375.757L602.035 529.257L610.958 524.743L533.292 371.243L524.369 375.757ZM610.459 523.246L540.251 384.246L531.325 388.754L601.533 527.754L610.459 523.246ZM540.192 384.132L464.9 244.132L456.093 248.868L531.385 388.868L540.192 384.132Z" fill="black"/>
</svg>
