<svg width="16" height="16" viewBox="0 0 16 16" fill="none" xmlns="http://www.w3.org/2000/svg">
<path d="M0 8C0 3.58172 3.58172 0 8 0C12.4183 0 16 3.58172 16 8C16 12.4183 12.4183 16 8 16C3.58172 16 0 12.4183 0 8Z" fill="#0C0A09"/>
<path d="M7.79694 2.55983L7.65246 2.80157L4.19951 9.20494L4.16204 9.17121L7.55961 2.95693L7.79694 2.55983Z" fill="#FAFAF9"/>
<path d="M8.20915 2.54858L8.39441 2.80719L10.1911 5.78681L12.1313 9.23868L12.1189 9.20494L10.3649 6.07915L8.48395 2.93087L8.20915 2.54858Z" fill="#FAFAF9"/>
<path d="M7.79694 2.55983L7.98441 7.21478L7.90946 7.20354L7.79694 2.55983Z" fill="#FAFAF9"/>
<path d="M8.22164 2.55983L8.4342 7.21478L8.35925 7.20354L8.22164 2.55983Z" fill="#FAFAF9"/>
<path d="M12.3389 9.35146C12.4105 9.23341 12.3728 9.07966 12.2548 9.00806C12.1367 8.93645 11.983 8.97411 11.9113 9.09216L12.3389 9.35146ZM4.34687 9.10294C4.2769 8.98391 4.12369 8.94414 4.00466 9.0141C3.88563 9.08407 3.84586 9.23729 3.91583 9.35632L4.34687 9.10294ZM5.78442 11.795C5.64635 11.795 5.53442 11.9069 5.53442 12.045C5.53442 12.183 5.64635 12.295 5.78442 12.295V11.795ZM5.84833 12.7031V12.4531H5.59833V12.7031H5.84833ZM10.3826 12.7031H10.6326V12.4531H10.3826V12.7031ZM10.3826 13.5001V13.7501H10.6326V13.5001H10.3826ZM5.84833 13.5001H5.59833V13.7501H5.84833V13.5001ZM7.79694 2.55983L8.04674 2.54977L8.01296 1.71107L7.58235 2.43157L7.79694 2.55983ZM7.65246 2.80157L7.43766 2.67319L7.43241 2.68291L7.65246 2.80157ZM4.16204 9.17121L3.94268 9.05128L3.84784 9.22475L3.99477 9.35702L4.16204 9.17121ZM6.89758 8.51456L6.64771 8.52285L6.64782 8.52553L6.89758 8.51456ZM9.35833 8.51456L9.60819 8.52275L9.60819 8.52273L9.35833 8.51456ZM7.98441 7.21478L8.02264 7.46184L8.24319 7.42771L8.23421 7.20472L7.98441 7.21478ZM7.55961 2.95693L7.34486 2.82858L7.34026 2.837L7.55961 2.95693ZM4.19951 9.20494L4.03225 9.39075L4.26861 9.60352L4.41955 9.3236L4.19951 9.20494ZM8.20915 2.54858L8.41214 2.40266L8.00591 2.69417L8.20915 2.54858ZM8.39441 2.80719L8.6085 2.6781L8.60339 2.66964L8.59764 2.6616L8.39441 2.80719ZM12.1189 9.20494L12.3533 9.11813L12.3465 9.09972L12.3369 9.08261L12.1189 9.20494ZM8.48395 2.93087L8.69856 2.80265L8.69313 2.79356L8.68695 2.78495L8.48395 2.93087ZM12.1313 9.23868L11.9134 9.36117L12.3658 9.15186L12.1313 9.23868ZM7.90946 7.20354L7.65954 7.20959L7.66463 7.4196L7.87237 7.45077L7.90946 7.20354ZM8.4342 7.21478L8.39711 7.46202L8.69781 7.50713L8.68394 7.20338L8.4342 7.21478ZM8.22164 2.55983L8.43018 2.42195L7.94573 1.68918L7.97175 2.56723L8.22164 2.55983ZM8.35925 7.20354L8.10936 7.21094L8.11555 7.41978L8.32216 7.45077L8.35925 7.20354ZM10.1911 5.78681L10.4091 5.66426L10.4052 5.65772L10.1911 5.78681ZM10.3649 6.07915L10.583 5.95677L10.5795 5.95093L10.3649 6.07915ZM11.9113 9.09216L10.1688 11.965L10.5963 12.2243L12.3389 9.35146L11.9113 9.09216ZM5.98347 11.8871L4.34687 9.10294L3.91583 9.35632L5.55243 12.1405L5.98347 11.8871ZM5.78442 12.295H10.4883V11.795H5.78442V12.295ZM5.84833 12.9531H10.3826V12.4531H5.84833V12.9531ZM10.1326 12.7031V13.5001H10.6326V12.7031H10.1326ZM10.3826 13.2501H5.84833V13.7501H10.3826V13.2501ZM6.09833 13.5001V12.7031H5.59833V13.5001H6.09833ZM7.58235 2.43157L7.43787 2.67332L7.86705 2.92983L8.01154 2.68808L7.58235 2.43157ZM6.89758 8.51456C6.64782 8.52553 6.64783 8.52566 6.64784 8.5258C6.64784 8.52585 6.64784 8.52599 6.64785 8.52609C6.64786 8.5263 6.64787 8.52652 6.64788 8.52676C6.6479 8.52724 6.64793 8.52779 6.64796 8.52841C6.64803 8.52966 6.64811 8.53118 6.64822 8.53298C6.64844 8.53657 6.64876 8.54126 6.6492 8.54696C6.6501 8.55835 6.65153 8.57387 6.65378 8.59291C6.65828 8.63092 6.6661 8.68348 6.67965 8.74581C6.70654 8.86947 6.75716 9.03726 6.85323 9.20749C7.05284 9.56121 7.44 9.9047 8.1343 9.9047V9.4047C7.64197 9.4047 7.41077 9.17811 7.28868 8.96176C7.2239 8.84697 7.18783 8.72972 7.16824 8.6396C7.15856 8.59505 7.1532 8.55853 7.15032 8.53419C7.14889 8.52206 7.14808 8.51308 7.14767 8.50777C7.14746 8.50512 7.14735 8.5034 7.1473 8.50268C7.14728 8.50232 7.14728 8.50221 7.14728 8.50236C7.14729 8.50243 7.14729 8.50257 7.1473 8.50278C7.14731 8.50288 7.14732 8.503 7.14732 8.50313C7.14732 8.5032 7.14733 8.50332 7.14733 8.50335C7.14734 8.50347 7.14734 8.50359 6.89758 8.51456ZM8.1343 9.9047C8.82899 9.9047 9.21364 9.56072 9.41007 9.20564C9.50445 9.03502 9.55327 8.86695 9.57879 8.74321C9.59166 8.68081 9.59891 8.62821 9.60298 8.59018C9.60502 8.57112 9.60628 8.5556 9.60705 8.5442C9.60743 8.53849 9.6077 8.5338 9.60788 8.53021C9.60796 8.52841 9.60803 8.52688 9.60808 8.52564C9.60811 8.52502 9.60813 8.52446 9.60815 8.52398C9.60816 8.52374 9.60817 8.52352 9.60817 8.52331C9.60818 8.52321 9.60818 8.52307 9.60818 8.52302C9.60819 8.52288 9.60819 8.52275 9.35833 8.51456C9.10846 8.50637 9.10846 8.50625 9.10847 8.50613C9.10847 8.50609 9.10847 8.50598 9.10848 8.50591C9.10848 8.50578 9.10848 8.50566 9.10849 8.50555C9.1085 8.50535 9.1085 8.50521 9.1085 8.50513C9.10851 8.50498 9.10851 8.50509 9.10849 8.50545C9.10845 8.50617 9.10836 8.50789 9.10818 8.51053C9.10783 8.51583 9.10712 8.5248 9.10582 8.53692C9.10322 8.56124 9.09827 8.59771 9.0891 8.64221C9.07053 8.73224 9.03584 8.8492 8.97255 8.96362C8.85362 9.1786 8.62627 9.4047 8.1343 9.4047V9.9047ZM8.22807 7.41599C8.69023 7.49772 8.90091 7.76398 9.00615 8.01379C9.06061 8.14308 9.08657 8.2692 9.09861 8.36393C9.10458 8.41086 9.10698 8.44888 9.10791 8.47416C9.10838 8.48676 9.10847 8.49608 9.10847 8.50164C9.10847 8.50442 9.10845 8.50625 9.10843 8.50706C9.10843 8.50747 9.10842 8.50762 9.10843 8.50751C9.10843 8.50746 9.10843 8.50734 9.10844 8.50715C9.10844 8.50706 9.10844 8.50695 9.10845 8.50682C9.10845 8.50676 9.10845 8.50665 9.10845 8.50662C9.10846 8.50651 9.10846 8.50639 9.35833 8.51456C9.60819 8.52273 9.6082 8.5226 9.6082 8.52248C9.6082 8.52243 9.60821 8.52229 9.60821 8.52219C9.60822 8.522 9.60822 8.52178 9.60823 8.52155C9.60824 8.52109 9.60826 8.52055 9.60827 8.51995C9.6083 8.51873 9.60833 8.51724 9.60836 8.51547C9.60842 8.51194 9.60847 8.50731 9.60847 8.50164C9.60847 8.49032 9.60828 8.47483 9.60757 8.45571C9.60616 8.41753 9.60271 8.36448 9.59462 8.30087C9.57856 8.17452 9.54362 8.00173 9.46693 7.81968C9.30985 7.44682 8.97717 7.0407 8.31514 6.92363L8.22807 7.41599ZM6.89758 8.51456C7.14745 8.50627 7.14745 8.50638 7.14745 8.5065C7.14745 8.50653 7.14746 8.50664 7.14746 8.50671C7.14746 8.50684 7.14747 8.50695 7.14747 8.50705C7.14748 8.50724 7.14748 8.50737 7.14748 8.50744C7.14748 8.50757 7.14748 8.50744 7.14747 8.50706C7.14746 8.50631 7.14744 8.50457 7.14744 8.5019C7.14744 8.49654 7.14753 8.4875 7.148 8.47527C7.14892 8.45072 7.1513 8.41374 7.15723 8.36813C7.16919 8.27603 7.19495 8.15379 7.24887 8.02918C7.35241 7.78987 7.56038 7.53337 8.02264 7.46184L7.94618 6.96772C7.28424 7.07015 6.9488 7.46354 6.78998 7.83063C6.71271 8.00922 6.67755 8.17931 6.66139 8.30373C6.65325 8.36639 6.64977 8.41872 6.64835 8.45642C6.64764 8.47531 6.64744 8.49063 6.64744 8.50185C6.64744 8.50747 6.64749 8.51207 6.64755 8.51559C6.64758 8.51735 6.64761 8.51884 6.64764 8.52005C6.64766 8.52066 6.64767 8.5212 6.64768 8.52166C6.64769 8.5219 6.6477 8.52211 6.6477 8.52231C6.64771 8.52241 6.64771 8.52255 6.64771 8.5226C6.64772 8.52273 6.64772 8.52285 6.89758 8.51456ZM4.38139 9.29114L7.77897 3.07686L7.34026 2.837L3.94268 9.05128L4.38139 9.29114ZM7.7742 3.08518L8.01154 2.68808L7.58235 2.43157L7.34502 2.82867L7.7742 3.08518ZM7.43241 2.68291L3.97946 9.08629L4.41955 9.3236L7.87251 2.92023L7.43241 2.68291ZM4.36677 9.01914L4.3293 8.9854L3.99477 9.35702L4.03225 9.39075L4.36677 9.01914ZM8.00591 2.69417L8.19117 2.95278L8.59764 2.6616L8.41238 2.40299L8.00591 2.69417ZM8.68695 2.78495L8.41214 2.40266L8.00615 2.6945L8.28095 3.07679L8.68695 2.78495ZM12.3658 9.15186L12.3533 9.11813L11.8844 9.29176L11.8969 9.32549L12.3658 9.15186ZM7.73344 3.17799L8.01434 2.68327L7.57954 2.43639L7.29864 2.93112L7.73344 3.17799ZM8.15939 7.19748L8.04687 2.55377L7.54701 2.56588L7.65954 7.20959L8.15939 7.19748ZM7.54714 2.56989L7.73461 7.22484L8.23421 7.20472L8.04674 2.54977L7.54714 2.56989ZM8.0215 6.96755L7.94656 6.95631L7.87237 7.45077L7.94732 7.46202L8.0215 6.96755ZM8.85488 3.06434L8.43018 2.42195L8.01309 2.6977L8.43779 3.34009L8.85488 3.06434ZM8.60914 7.19613L8.47153 2.55242L7.97175 2.56723L8.10936 7.21094L8.60914 7.19613ZM7.9719 2.57123L8.18446 7.22619L8.68394 7.20338L8.47138 2.54842L7.9719 2.57123ZM8.47129 6.96755L8.39634 6.95631L8.32216 7.45077L8.39711 7.46202L8.47129 6.96755ZM8.18032 2.93629L9.977 5.91591L10.4052 5.65772L8.6085 2.6781L8.18032 2.93629ZM9.97316 5.90931L11.9134 9.36117L12.3493 9.11618L10.409 5.66432L9.97316 5.90931ZM12.3369 9.08261L10.5829 5.95682L10.1469 6.20149L11.9008 9.32728L12.3369 9.08261ZM10.5795 5.95093L8.69856 2.80265L8.26934 3.0591L10.1503 6.20738L10.5795 5.95093Z" fill="#FAFAF9"/>
<path d="M7.14235 5.94193C7.11259 6.03782 7.09839 6.1399 7.05892 6.23249C7.03612 6.28599 6.99055 6.31119 6.96686 6.35619C6.92662 6.43266 6.9256 6.46555 6.987 6.3303C7.15068 5.96978 7.27736 5.61485 7.40702 5.24142C7.53058 4.88556 7.45305 4.42208 7.45305 4.04609C7.45305 4.00006 7.44888 3.86216 7.45305 3.908C7.47023 4.09695 7.47894 4.28794 7.47894 4.47762C7.47894 4.7523 7.45171 5.02391 7.43291 5.29752C7.42178 5.45957 7.43956 5.62442 7.41277 5.78514C7.39176 5.91125 7.36077 6.03402 7.35092 6.16201C7.33168 6.41218 7.37349 5.66019 7.40414 5.41115C7.46741 4.89714 7.56154 4.3861 7.6084 3.87061" stroke="#FAFAF9" stroke-linecap="round"/>
<path d="M4.88977 9.25604C4.83343 9.30434 4.95363 9.12167 4.99334 9.05898C5.177 8.76899 5.38839 8.49519 5.59747 8.22326C5.94017 7.77755 6.28907 7.37884 6.48354 6.84237C6.62095 6.46331 6.70309 6.04511 6.88342 5.68445C7.01082 5.42964 7.10841 5.15179 7.19412 4.88037" stroke="#FAFAF9" stroke-linecap="round"/>
<path d="M5.04541 8.34981C5.164 8.17192 5.31167 8.02263 5.41365 7.83198C5.55273 7.57195 5.68219 7.30693 5.82072 7.0466C6.02518 6.66236 6.24236 6.27653 6.52123 5.94189" stroke="#FAFAF9" stroke-linecap="round"/>
<path d="M7.37536 6.53735C7.48183 6.55066 7.40616 6.73181 7.36961 6.78332C7.24017 6.9657 6.99808 7.04604 6.84027 7.2019C6.63857 7.4011 6.40447 7.63953 6.30374 7.90817C6.20579 8.16936 6.2134 8.38485 6.21024 8.66334C6.20663 8.98112 6.03128 10.4607 5.41048 9.97518C5.29053 9.88137 5.29368 9.71733 5.15588 9.63859C4.6523 9.35082 5.74706 9.07279 5.89954 9.02294" stroke="#FAFAF9" stroke-linecap="round"/>
<path d="M6.49512 9.07471C6.50423 9.30262 6.52155 9.68115 6.66917 9.86728C6.8649 10.1141 6.97021 10.4301 7.19419 10.6541" stroke="#FAFAF9" stroke-linecap="round"/>
<path d="M5.25244 10.1621C5.33639 10.6448 5.80121 10.9231 6.0033 11.3272" stroke="#FAFAF9" stroke-linecap="round"/>
<path d="M10.0942 10.3951C9.47173 10.5811 8.78949 10.7632 8.13648 10.7259C7.77196 10.7051 7.35655 10.6755 7.00732 10.5591C6.82003 10.4966 6.65285 10.3475 6.57867 10.1621C6.51187 9.99505 6.69762 10.1071 6.78005 10.1362C7.12237 10.2568 7.50472 10.3 7.86462 10.326C8.39671 10.3645 9.09343 10.2259 9.45695 9.78375C9.54099 9.68153 9.60235 9.57148 9.69141 9.47305C9.80529 9.34719 9.78347 9.17975 9.78347 9.02282C9.78347 8.68773 9.74597 8.36498 9.67703 8.03751C9.62011 7.76716 9.47519 7.48569 9.35194 7.23918C9.19036 6.91602 9.00466 6.59189 8.82548 6.27832" stroke="#FAFAF9" stroke-linecap="round"/>
<path d="M8.10059 3.74097C8.33866 3.86 8.48954 4.19524 8.57526 4.42709C8.75883 4.92354 8.935 5.41755 9.14919 5.90147C9.38042 6.42387 9.63442 7.11061 10.146 7.41757" stroke="#FAFAF9" stroke-linecap="round"/>
<path d="M8.98096 4.80249C9.08843 4.9388 9.19195 5.07825 9.30029 5.21388C9.42974 5.37594 9.59564 5.51976 9.70017 5.70006C9.84884 5.95653 9.84264 6.24397 9.94038 6.51277C10.0347 6.77203 10.2101 6.99531 10.3216 7.2478C10.5172 7.69102 10.7487 8.07725 11.0149 8.48197C11.1206 8.64277 11.1837 8.78359 11.222 8.96959C11.2732 9.21831 11.2457 9.34666 11.0235 9.51331C10.9169 9.5933 10.75 9.71884 10.6294 9.5838C10.3938 9.32008 10.412 8.81589 10.405 8.48484C10.4002 8.25578 10.3847 8.30626 10.287 8.51793C10.1552 8.80351 10.0368 9.09648 9.91305 9.38529" stroke="#FAFAF9" stroke-linecap="round"/>
<path d="M10.7415 9.22998C10.8226 9.53668 10.8184 9.66338 10.5589 9.85282C10.4534 9.92975 10.3536 10.0061 10.2669 10.1045C10.2448 10.1295 9.94578 10.4745 10.0799 10.49C10.2187 10.5062 10.4097 10.3756 10.5171 10.3059C10.6762 10.2027 10.7764 10.0702 10.8667 9.90604C10.9416 9.76975 11.0053 9.63155 11.0983 9.50616C11.1741 9.40383 11.5163 9.23041 11.4377 9.33067C11.3154 9.48674 11.1467 9.60428 11.0134 9.75069C10.8745 9.9032 10.7576 10.0722 10.638 10.2398" stroke="#FAFAF9" stroke-linecap="round"/>
<path d="M10.146 10.6541C10.146 10.7745 10.1429 10.8863 10.1043 11.0022C10.0964 11.0258 9.97502 11.2635 9.98775 11.2783C10.0225 11.3189 10.3822 11.0721 10.4193 11.0424C10.5357 10.9493 10.6088 10.8272 10.6897 10.7058" stroke="#FAFAF9" stroke-linecap="round"/>
<path d="M9.18793 11.1978C8.22417 11.1978 7.2754 11.2717 6.31396 11.1978" stroke="#FAFAF9" stroke-linecap="round"/>
<path d="M9.75775 11.4568C9.33119 11.4568 8.89395 11.4844 8.46893 11.4453C8.07312 11.409 7.68095 11.3274 7.28223 11.3274C7.04326 11.3274 6.8003 11.3388 6.56158 11.3259C6.39564 11.317 6.24372 11.2603 6.08691 11.2497C5.92586 11.2388 5.86038 10.8122 5.87977 10.6628C5.93247 10.2571 6.54822 10.3076 6.81187 10.1134C6.91443 10.0378 7.05129 10.1076 7.16428 10.1076C7.19261 10.1076 7.01409 9.99565 6.99167 9.98246C6.92913 9.94567 6.88833 9.88911 6.83201 9.85156" stroke="#FAFAF9" stroke-linecap="round"/>
<path d="M9.49854 11.3271C9.65744 11.3271 9.74233 11.3614 9.88691 11.4048C9.92847 11.4173 9.93989 11.4898 9.97753 11.5156C10.0115 11.5388 10.0552 11.5343 10.094 11.5343" stroke="#FAFAF9" stroke-linecap="round"/>
<path d="M6.39172 11.3789C6.28006 11.3319 6.20095 11.3769 6.15869 11.4825" stroke="#FAFAF9" stroke-linecap="round"/>
<path d="M10.5039 12.168C10.5004 12.1749 10.4907 12.1765 10.4844 12.1797" stroke="#FAFAF9" stroke-width="0.1" stroke-linecap="round"/>
<path d="M10.5273 12.1562C10.5419 12.177 10.4948 12.1823 10.4868 12.191C10.4812 12.1969 10.4766 12.1939 10.4766 12.2031C10.4766 12.2123 10.4889 12.1893 10.4961 12.1836" stroke="#FAFAF9" stroke-width="0.1" stroke-linecap="round"/>
<path d="M10.5118 12.1836C10.5169 12.1945 10.5079 12.207 10.4946 12.207C10.4824 12.207 10.5191 12.207 10.5313 12.207" stroke="#FAFAF9" stroke-width="0.1" stroke-linecap="round"/>
<path d="M10.5271 12.2227C10.5158 12.2238 10.5015 12.2248 10.4902 12.2274C10.4817 12.2294 10.4607 12.2305 10.4803 12.2305" stroke="#FAFAF9" stroke-width="0.1" stroke-linecap="round"/>
<path d="M10.5352 12.2109C10.5242 12.215 10.5287 12.2422 10.5098 12.2422C10.5013 12.2422 10.4928 12.2422 10.4844 12.2422" stroke="#FAFAF9" stroke-width="0.1" stroke-linecap="round"/>
<path d="M10.5352 12.1953C10.536 12.2037 10.5409 12.2061 10.5469 12.2109" stroke="#FAFAF9" stroke-width="0.1" stroke-linecap="round"/>
<path d="M10.4922 12.1953C10.4922 12.2111 10.5039 12.2205 10.5039 12.2363C10.5039 12.2555 10.4922 12.2367 10.4922 12.2266" stroke="#FAFAF9" stroke-width="0.1" stroke-linecap="round"/>
<path d="M10.5234 12.2188C10.528 12.2228 10.5326 12.2215 10.5352 12.2266" stroke="#FAFAF9" stroke-width="0.1" stroke-linecap="round"/>
<path d="M3.98438 9.21875C3.96821 9.21875 3.95605 9.22656 3.94141 9.22656" stroke="#FAFAF9" stroke-width="0.1" stroke-linecap="round"/>
<path d="M3.94161 9.22656C3.93139 9.22656 3.9219 9.22266 3.91231 9.22266C3.896 9.22266 3.92053 9.23987 3.92208 9.24219" stroke="#FAFAF9" stroke-width="0.1" stroke-linecap="round"/>
<path d="M3.94141 9.28125C3.94141 9.26835 3.93221 9.26011 3.92188 9.25391" stroke="#FAFAF9" stroke-width="0.1" stroke-linecap="round"/>
<path d="M8.02734 1.68359C8.04276 1.68359 8.05469 1.72674 8.05469 1.74306C8.05469 1.77596 8.04671 1.73832 8.03776 1.72396C8.02858 1.70922 8.01411 1.69817 8.00391 1.68359" stroke="#0C0A09" stroke-width="0.1" stroke-linecap="round"/>
<path d="M7.98828 1.68359C7.97948 1.69239 7.96356 1.70426 7.95768 1.71484C7.95081 1.72722 7.94504 1.73751 7.93359 1.74609" stroke="#0C0A09" stroke-width="0.1" stroke-linecap="round"/>
<path d="M7.85156 1.79297C7.873 1.79214 7.88964 1.7913 7.8954 1.76953C7.89951 1.75398 7.91272 1.74328 7.92188 1.73047" stroke="#0C0A09" stroke-width="0.1" stroke-linecap="round"/>
<path d="M8.13672 1.78516C8.12997 1.78431 8.1134 1.76481 8.10807 1.7602C8.10255 1.75542 8.09813 1.74959 8.09158 1.74609C8.08509 1.74263 8.07145 1.74108 8.06684 1.73589C8.05887 1.72693 8.05174 1.72128 8.0408 1.71484C8.0307 1.70891 8.0269 1.69715 8.01606 1.69141C8.00613 1.68615 7.99444 1.68501 7.98828 1.67578" stroke="#0C0A09" stroke-width="0.1"/>
<path d="M7.875 1.68359C7.96127 1.68558 8.06864 1.7445 8.14844 1.6875" stroke="#0C0A09" stroke-width="0.1"/>
<path d="M7.84766 1.83203C7.86504 1.82105 7.8847 1.8001 7.89149 1.78038C7.90542 1.73999 7.9353 1.7015 7.96094 1.66797" stroke="#0C0A09" stroke-width="0.1"/>
<path d="M7.88281 1.80469C7.9012 1.80929 7.91319 1.76411 7.92231 1.75369C7.93806 1.73569 7.95199 1.71598 7.96875 1.69922" stroke="#0C0A09" stroke-width="0.1"/>
<path d="M7.89453 1.78906C7.91306 1.76072 7.93182 1.73213 7.94922 1.70312" stroke="#0C0A09" stroke-width="0.1"/>
<path d="M7.89453 1.79297C7.92777 1.75798 7.95084 1.7148 7.98828 1.68359" stroke="#0C0A09" stroke-width="0.1"/>
<path d="M7.86719 1.80859C7.8896 1.79627 7.91435 1.77426 7.92491 1.75087C7.93851 1.72076 7.96935 1.69803 7.98438 1.66797" stroke="#0C0A09" stroke-width="0.1"/>
<path d="M8.09766 1.77344C8.09122 1.75557 8.07617 1.74067 8.06055 1.73025C8.04315 1.71865 8.03226 1.6956 8.01953 1.67969" stroke="#0C0A09" stroke-width="0.1"/>
<path d="M8.12891 1.77734C8.10506 1.75349 8.08052 1.72871 8.05859 1.70312" stroke="#0C0A09" stroke-width="0.1"/>
<path d="M8.12891 1.8125C8.12745 1.82419 8.10957 1.80658 8.10677 1.80295C8.09866 1.79244 8.09131 1.78449 8.08789 1.77148C8.0852 1.76126 8.08251 1.75178 8.07248 1.74631C8.06327 1.74129 8.05887 1.72048 8.05273 1.71094C8.04167 1.69373 8.03009 1.67775 8.01953 1.66016" stroke="#0C0A09" stroke-width="0.1" stroke-linecap="square"/>
<path d="M8.10156 1.76953C8.05998 1.74874 8.03612 1.70164 8.01953 1.66016" stroke="#0C0A09" stroke-width="0.1" stroke-linecap="square"/>
<path d="M8.09766 1.77734C8.09235 1.75964 8.06391 1.74621 8.05469 1.72873C8.04946 1.71883 8.03516 1.70602 8.03516 1.69531" stroke="#0C0A09" stroke-width="0.1" stroke-linecap="square"/>
<path d="M8.12891 1.83203C8.12891 1.80506 8.11156 1.79658 8.09201 1.78038C8.07971 1.77019 8.0666 1.75083 8.05881 1.73655C8.05357 1.72694 8.04875 1.72019 8.04123 1.71267C8.02771 1.69915 8.02528 1.67845 8.00781 1.66797" stroke="#0C0A09" stroke-width="0.1" stroke-linecap="square"/>
<path d="M7.85547 1.82422C7.86569 1.81714 7.87408 1.81083 7.87804 1.79861C7.88313 1.78293 7.89668 1.77358 7.9056 1.7602C7.9223 1.73514 7.94238 1.71887 7.96484 1.69922" stroke="#0C0A09" stroke-width="0.1" stroke-linecap="square"/>
<path d="M6.18896 13.0752C6.33831 13.0613 6.48416 13.0359 6.63469 13.0359C6.72209 13.0359 6.80948 13.0359 6.89688 13.0359" stroke="#FAFAF9" stroke-width="0.1" stroke-linecap="square"/>
<path d="M6.36598 13.1145C6.32844 13.1145 6.36566 13.1145 6.384 13.1145C6.44412 13.1145 6.50473 13.1169 6.5648 13.1145C6.62529 13.1122 6.68712 13.0985 6.74615 13.0861C6.81967 13.0708 6.72022 13.0753 6.71119 13.0752C6.60615 13.0745 6.50107 13.0752 6.39602 13.0752C6.34121 13.0752 6.17722 13.082 6.2316 13.0752C6.34758 13.0607 6.46883 13.0701 6.58556 13.0643C6.7293 13.0572 6.87071 13.0359 7.0149 13.0359" stroke="#FAFAF9" stroke-linecap="square"/>
<path d="M6.49392 13.085C6.40776 13.085 6.3239 13.0853 6.23828 13.0948" stroke="#FAFAF9" stroke-linecap="square"/>
<path d="M7.5752 13.0653C7.7957 13.0653 8.02074 13.078 8.2405 13.0587C8.543 13.0321 8.84536 13.0378 9.14834 13.0161" stroke="#FAFAF9" stroke-linecap="square"/>
<path d="M9.22998 13.0771C9.41892 13.1159 9.6124 13.0834 9.80027 13.121" stroke="#FAFAF9" stroke-linecap="square"/>
<path d="M9.2998 8.44995C9.2998 9.14031 8.74016 9.69995 8.0498 9.69995C7.35945 9.69995 6.7998 9.14031 6.7998 8.44995C6.7998 7.7596 7.35945 7.19995 8.0498 7.19995C8.74016 7.19995 9.2998 7.7596 9.2998 8.44995Z" fill="#0C0A09"/>
<rect x="5" y="12.3999" width="6" height="0.4" fill="#0C0A09"/>
</svg>
