<svg width="16" height="16" viewBox="0 0 16 16" fill="none" xmlns="http://www.w3.org/2000/svg">
<path d="M0 0H16V16H0V0Z" fill="#042F2E"/>
<path d="M7.80826 2.55983L7.70275 2.80157L5.18112 9.20494L5.15376 9.17121L7.63494 2.95693L7.80826 2.55983Z" fill="#F0FDFA"/>
<path d="M8.10929 2.54858L8.24458 2.80719L9.55667 5.78681L10.9736 9.23868L10.9645 9.20494L9.6836 6.07915L8.30997 2.93087L8.10929 2.54858Z" fill="#F0FDFA"/>
<path d="M7.80826 2.55983L7.94517 7.21478L7.89043 7.20354L7.80826 2.55983Z" fill="#F0FDFA"/>
<path d="M8.11841 2.55983L8.27364 7.21478L8.2189 7.20354L8.11841 2.55983Z" fill="#F0FDFA"/>
<path d="M11.1976 9.32306C11.2535 9.19682 11.1965 9.04915 11.0703 8.99323C10.944 8.93731 10.7964 8.99432 10.7405 9.12056L11.1976 9.32306ZM5.36108 9.13101C5.30661 9.00414 5.15961 8.94544 5.03273 8.9999C4.90586 9.05436 4.84716 9.20137 4.90162 9.32824L5.36108 9.13101ZM6.33856 11.795C6.20049 11.795 6.08856 11.9069 6.08856 12.045C6.08856 12.183 6.20049 12.295 6.33856 12.295V11.795ZM6.38523 12.7031V12.4531H6.13523V12.7031H6.38523ZM9.69652 12.7031H9.94652V12.4531H9.69652V12.7031ZM9.69652 13.5001V13.7501H9.94652V13.5001H9.69652ZM6.38523 13.5001H6.13523V13.7501H6.38523V13.5001ZM7.80826 2.55983L8.05815 2.55248L7.57913 2.45982L7.80826 2.55983ZM7.70275 2.80157L7.47347 2.7015L7.47014 2.70997L7.70275 2.80157ZM5.15376 9.17121L4.92158 9.07851L4.86717 9.21477L4.95961 9.32871L5.15376 9.17121ZM7.15148 8.51456L6.90154 8.52062L6.90161 8.52258L7.15148 8.51456ZM8.94851 8.51456L9.19844 8.52054L9.19844 8.52053L8.94851 8.51456ZM7.94517 7.21478L7.99699 7.45935L8.2012 7.41608L8.19506 7.20743L7.94517 7.21478ZM7.63494 2.95693L7.4057 2.85687L7.40277 2.86422L7.63494 2.95693ZM5.18112 9.20494L4.98698 9.36245L5.25681 9.69505L5.41374 9.29655L5.18112 9.20494ZM8.10929 2.54858L8.33064 2.43238L7.88777 2.66447L8.10929 2.54858ZM8.24458 2.80719L8.47338 2.70644L8.46999 2.69875L8.4661 2.69131L8.24458 2.80719ZM10.9645 9.20494L11.2058 9.13968L11.2017 9.1246L11.1958 9.11015L10.9645 9.20494ZM8.30997 2.93087L8.53911 2.8309L8.53551 2.82265L8.53132 2.81468L8.30997 2.93087ZM10.9736 9.23868L10.7423 9.33361L11.2149 9.17341L10.9736 9.23868ZM7.89043 7.20354L7.64047 7.20796L7.64402 7.40814L7.84013 7.44842L7.89043 7.20354ZM8.27364 7.21478L8.22333 7.45967L8.53407 7.5235L8.5235 7.20645L8.27364 7.21478ZM8.11841 2.55983L8.34354 2.45113L7.86847 2.56524L8.11841 2.55983ZM8.2189 7.20354L7.96896 7.20895L7.97328 7.4083L8.1686 7.44842L8.2189 7.20354ZM9.55667 5.78681L9.78801 5.69185L9.78546 5.68606L9.55667 5.78681ZM9.6836 6.07915L9.91499 5.98434L9.91274 5.97918L9.6836 6.07915ZM10.7405 9.12056L9.46794 11.9934L9.9251 12.1959L11.1976 9.32306L10.7405 9.12056ZM6.55625 11.9152L5.36108 9.13101L4.90162 9.32824L6.0968 12.1124L6.55625 11.9152ZM6.33856 12.295H9.7737V11.795H6.33856V12.295ZM6.38523 12.9531H9.69652V12.4531H6.38523V12.9531ZM9.44652 12.7031V13.5001H9.94652V12.7031H9.44652ZM9.69652 13.2501H6.38523V13.7501H9.69652V13.2501ZM6.63523 13.5001V12.7031H6.13523V13.5001H6.63523ZM7.57913 2.45982L7.47362 2.70157L7.93188 2.90158L8.03739 2.65983L7.57913 2.45982ZM7.15148 8.51456C6.90161 8.52258 6.90161 8.52267 6.90161 8.52277C6.90161 8.52281 6.90162 8.52292 6.90162 8.523C6.90162 8.52316 6.90163 8.52334 6.90164 8.52353C6.90165 8.52392 6.90167 8.52438 6.90169 8.52491C6.90173 8.52596 6.90178 8.5273 6.90185 8.5289C6.902 8.53211 6.90221 8.5364 6.90251 8.54169C6.90312 8.55228 6.9041 8.56693 6.90567 8.58506C6.90879 8.62127 6.91428 8.67177 6.92382 8.7319C6.94272 8.85095 6.97848 9.01376 7.04694 9.17988C7.18371 9.51176 7.47754 9.9047 8.05463 9.9047V9.4047C7.76514 9.4047 7.60739 9.22757 7.50923 8.98937C7.46022 8.87047 7.43268 8.74824 7.41764 8.65351C7.41022 8.60675 7.40607 8.56819 7.40381 8.54204C7.40269 8.529 7.40204 8.51915 7.40169 8.51304C7.40151 8.50998 7.40141 8.50786 7.40136 8.50676C7.40134 8.5062 7.40133 8.5059 7.40133 8.50587C7.40132 8.50585 7.40133 8.50589 7.40133 8.50601C7.40133 8.50606 7.40133 8.50614 7.40134 8.50623C7.40134 8.50627 7.40134 8.50635 7.40134 8.50637C7.40135 8.50646 7.40135 8.50655 7.15148 8.51456ZM8.05463 9.9047C8.63247 9.9047 8.924 9.5108 9.05834 9.17827C9.12553 9.01195 9.15998 8.84901 9.17792 8.72994C9.18698 8.66978 9.19205 8.61926 9.19488 8.58305C9.1963 8.56491 9.19717 8.55026 9.19769 8.53967C9.19795 8.53437 9.19813 8.53008 9.19824 8.52688C9.1983 8.52527 9.19834 8.52393 9.19838 8.52288C9.19839 8.52235 9.1984 8.52189 9.19842 8.5215C9.19842 8.5213 9.19842 8.52113 9.19843 8.52097C9.19843 8.52089 9.19843 8.52078 9.19843 8.52074C9.19844 8.52064 9.19844 8.52054 8.94851 8.51456C8.69858 8.50858 8.69858 8.50849 8.69859 8.5084C8.69859 8.50838 8.69859 8.5083 8.69859 8.50826C8.69859 8.50817 8.69859 8.50809 8.6986 8.50804C8.6986 8.50792 8.6986 8.50788 8.6986 8.5079C8.6986 8.50793 8.69859 8.50823 8.69857 8.50879C8.69853 8.50989 8.69845 8.51201 8.6983 8.51506C8.69799 8.52117 8.69743 8.53102 8.69641 8.54405C8.69436 8.57019 8.69053 8.60874 8.68349 8.65547C8.66923 8.75018 8.6427 8.87227 8.59474 8.99099C8.49878 9.22852 8.34338 9.4047 8.05463 9.4047V9.9047ZM8.09606 7.41278C8.38066 7.4817 8.53574 7.71433 8.62062 7.99025C8.66202 8.12481 8.68182 8.25637 8.69103 8.35551C8.69559 8.40463 8.69745 8.44466 8.69817 8.47167C8.69854 8.48515 8.69862 8.49531 8.69862 8.50164C8.69862 8.50481 8.6986 8.50701 8.69858 8.5082C8.69858 8.50879 8.69857 8.50912 8.69857 8.50919C8.69857 8.50922 8.69857 8.50919 8.69857 8.50909C8.69857 8.50904 8.69857 8.50898 8.69858 8.50889C8.69858 8.50885 8.69858 8.50878 8.69858 8.50876C8.69858 8.50868 8.69858 8.50859 8.94851 8.51456C9.19844 8.52053 9.19844 8.52044 9.19844 8.52034C9.19845 8.5203 9.19845 8.5202 9.19845 8.52012C9.19845 8.51997 9.19846 8.5198 9.19846 8.51961C9.19847 8.51923 9.19848 8.51879 9.19849 8.51827C9.19851 8.51724 9.19853 8.51592 9.19855 8.51434C9.19858 8.51117 9.19862 8.50692 9.19862 8.50164C9.19862 8.4911 9.19848 8.47644 9.19799 8.45819C9.19701 8.42176 9.19459 8.37071 9.18889 8.30929C9.17757 8.18736 9.1529 8.02 9.09852 7.84322C8.99184 7.49646 8.75011 7.05672 8.21374 6.92683L8.09606 7.41278ZM7.15148 8.51456C7.4014 8.5085 7.40141 8.50859 7.40141 8.50867C7.40141 8.50869 7.40141 8.50877 7.40141 8.50881C7.40141 8.5089 7.40141 8.50896 7.40142 8.50902C7.40142 8.50912 7.40142 8.50916 7.40142 8.50914C7.40142 8.50909 7.40141 8.50878 7.4014 8.50821C7.40139 8.50709 7.40137 8.50496 7.40137 8.50189C7.40137 8.49575 7.40145 8.48586 7.40181 8.47273C7.40254 8.44641 7.40439 8.40738 7.40892 8.35954C7.41809 8.2629 7.43779 8.13514 7.47884 8.00522C7.5627 7.73981 7.71487 7.51913 7.99699 7.45935L7.89335 6.97021C7.35448 7.08439 7.10981 7.5136 7.00207 7.85458C6.94732 8.02786 6.92253 8.19243 6.91116 8.31232C6.90543 8.37275 6.90299 8.42304 6.902 8.45896C6.90151 8.47695 6.90137 8.49143 6.90137 8.50186C6.90137 8.50708 6.9014 8.51129 6.90144 8.51444C6.90146 8.51601 6.90148 8.51732 6.9015 8.51835C6.90151 8.51887 6.90152 8.51931 6.90153 8.51969C6.90153 8.51988 6.90154 8.52005 6.90154 8.52021C6.90154 8.52029 6.90154 8.52039 6.90155 8.52043C6.90155 8.52052 6.90155 8.52062 7.15148 8.51456ZM5.38594 9.26391L7.86712 3.04963L7.40277 2.86422L4.92158 9.07851L5.38594 9.26391ZM7.86407 3.05693L8.03739 2.65983L7.57913 2.45982L7.40582 2.85692L7.86407 3.05693ZM7.47014 2.70997L4.94851 9.11334L5.41374 9.29655L7.93536 2.89317L7.47014 2.70997ZM5.37527 9.04744L5.3479 9.01371L4.95961 9.32871L4.98698 9.36245L5.37527 9.04744ZM7.88777 2.66447L8.02306 2.92308L8.4661 2.69131L8.33081 2.4327L7.88777 2.66447ZM8.53132 2.81468L8.33064 2.43238L7.88793 2.66478L8.08862 3.04707L8.53132 2.81468ZM11.2149 9.17341L11.2058 9.13968L10.7231 9.27021L10.7323 9.30394L11.2149 9.17341ZM7.83406 3.15031L8.0392 2.65558L7.57733 2.46407L7.37219 2.9588L7.83406 3.15031ZM8.1404 7.19912L8.05822 2.5554L7.5583 2.56425L7.64047 7.20796L8.1404 7.19912ZM7.55837 2.56718L7.69527 7.22213L8.19506 7.20743L8.05815 2.55248L7.55837 2.56718ZM7.99547 6.9699L7.94074 6.95865L7.84013 7.44842L7.89486 7.45967L7.99547 6.9699ZM8.65369 3.09352L8.34354 2.45113L7.89328 2.66852L8.20342 3.31091L8.65369 3.09352ZM8.46885 7.19813L8.36835 2.55442L7.86847 2.56524L7.96896 7.20895L8.46885 7.19813ZM7.86855 2.56816L8.02378 7.22311L8.5235 7.20645L8.36827 2.5515L7.86855 2.56816ZM8.32394 6.9699L8.26921 6.95865L8.1686 7.44842L8.22333 7.45967L8.32394 6.9699ZM8.01578 2.90794L9.32787 5.88757L9.78546 5.68606L8.47338 2.70644L8.01578 2.90794ZM9.32539 5.88175L10.7423 9.33361L11.2049 9.14374L9.78794 5.69188L9.32539 5.88175ZM11.1958 9.11015L9.91493 5.98436L9.45227 6.17395L10.7331 9.29974L11.1958 9.11015ZM9.91274 5.97918L8.53911 2.8309L8.08083 3.03085L9.45446 6.17913L9.91274 5.97918Z" fill="#F0FDFA"/>
</svg>
